<svg viewBox="0 0 211 211" fill="none" xmlns="http://www.w3.org/2000/svg">
<path d="M141.766 64.2891V54.3984C141.766 53.4918 141.024 52.75 140.117 52.75H60.9922C60.0855 52.75 59.3438 53.4918 59.3438 54.3984V64.2891C59.3438 65.1957 60.0855 65.9375 60.9922 65.9375H140.117C141.024 65.9375 141.766 65.1957 141.766 64.2891ZM60.9922 82.4219C60.0855 82.4219 59.3438 83.1637 59.3438 84.0703V93.9609C59.3438 94.8676 60.0855 95.6094 60.9922 95.6094H98.9062C99.8129 95.6094 100.555 94.8676 100.555 93.9609V84.0703C100.555 83.1637 99.8129 82.4219 98.9062 82.4219H60.9922ZM90.6641 175.559H42.8594V30.4961H158.25V101.379C158.25 102.286 158.992 103.027 159.898 103.027H171.438C172.344 103.027 173.086 102.286 173.086 101.379V22.2539C173.086 18.6067 170.139 15.6602 166.492 15.6602H34.6172C30.97 15.6602 28.0234 18.6067 28.0234 22.2539V183.801C28.0234 187.448 30.97 190.395 34.6172 190.395H90.6641C91.5707 190.395 92.3125 189.653 92.3125 188.746V177.207C92.3125 176.3 91.5707 175.559 90.6641 175.559ZM182.503 186.17L163.278 166.946C167.873 160.867 170.613 153.284 170.613 145.062C170.613 125.034 154.376 108.797 134.348 108.797C114.319 108.797 98.082 125.034 98.082 145.062C98.082 165.091 114.319 181.328 134.348 181.328C141.724 181.328 148.565 179.123 154.294 175.353L173.807 194.866C174.137 195.196 174.549 195.34 174.961 195.34C175.373 195.34 175.806 195.175 176.115 194.866L182.503 188.478C182.655 188.327 182.775 188.147 182.858 187.949C182.94 187.751 182.982 187.539 182.982 187.324C182.982 187.11 182.94 186.898 182.858 186.7C182.775 186.501 182.655 186.322 182.503 186.17V186.17ZM134.348 168.141C121.593 168.141 111.27 157.817 111.27 145.062C111.27 132.308 121.593 121.984 134.348 121.984C147.102 121.984 157.426 132.308 157.426 145.062C157.426 157.817 147.102 168.141 134.348 168.141Z" fill="#003590"/>
</svg>
